<?xml version="1.0" encoding="UTF-8" standalone="no"?>
<svg
   xmlns:sketch="http://www.bohemiancoding.com/sketch/ns"
   xmlns:dc="http://purl.org/dc/elements/1.1/"
   xmlns:cc="http://creativecommons.org/ns#"
   xmlns:rdf="http://www.w3.org/1999/02/22-rdf-syntax-ns#"
   xmlns:svg="http://www.w3.org/2000/svg"
   xmlns="http://www.w3.org/2000/svg"
   height="24"
   width="26.058575"
   id="svg20"
   y="0px"
   x="0px"
   version="1.1"
   viewBox="0 0 26.058575 24">
  <metadata
     id="metadata26">
    <rdf:RDF>
      <cc:Work
         rdf:about="">
        <dc:format>image/svg+xml</dc:format>
        <dc:type
           rdf:resource="http://purl.org/dc/dcmitype/StillImage" />
        <dc:title>edit</dc:title>
      </cc:Work>
    </rdf:RDF>
  </metadata>
  <defs
     id="defs24" />
  <title
     id="title2">edit</title>
  <description>Created with Sketch.</description>
  <g
     style="fill:none;fill-rule:evenodd;stroke:none;stroke-width:1"
     id="g14"
     sketch:type="MSPage">
    <g
       style="fill:#000000"
       id="g12"
       transform="translate(-1439,-1143)"
       sketch:type="MSArtboardGroup">
      <g
         id="g10"
         transform="translate(917,675)"
         sketch:type="MSLayerGroup">
        <g
           id="g8"
           sketch:type="MSShapeGroup"
           transform="translate(522,468)">
          <path
             id="path4"
             d="m 24.375,13.983887 v 5.217037 C 24.375,21.849039 22.192808,24 19.500938,24 H 4.8740615 C 2.1845699,24 0,21.85138 0,19.200924 V 4.799076 C 0,2.1509612 2.1821917,0 4.8740615,0 H 19.934204 V 3.0943918e-4 L 19.90625,2.4000001 H 19.9342 V 2.3996906 C 19.924911,2.3998965 19.915593,2.4 19.90625,2.4000001 L 5.6794181,2.4 C 3.8889562,2.4 2.4375,3.8274346 2.4375,5.5920424 V 18.407958 C 2.4375,20.170874 3.8872383,21.6 5.6794181,21.6 H 18.695582 c 1.790462,0 3.241918,-1.427435 3.241918,-3.192042 V 13.983887 C 21.946366,13.328572 22.488616,12.8 23.15625,12.8 c 0.667634,0 1.209883,0.528572 1.218642,1.183887 z M 25.581791,3.6117749 C 24.947189,2.986936 23.917379,2.9878387 23.280852,3.6145731 L 11.796051,14.922685 c -0.636172,0.626385 -0.641868,1.636345 -0.0028,2.26554 0.634602,0.624839 1.664412,0.623936 2.300939,-0.0028 L 25.578949,5.8773148 c 0.636172,-0.6263843 0.641868,-1.6363448 0.0028,-2.2655399 z" />
          <circle
             id="circle6"
             r="1.2"
             cy="1.2"
             cx="19.799976" />
        </g>
      </g>
    </g>
  </g>
</svg>
