<svg xmlns="http://www.w3.org/2000/svg" xmlns:xlink="http://www.w3.org/1999/xlink" xml:space="preserve" version="1.1" 
style="shape-rendering:geometricPrecision;text-rendering:geometricPrecision;image-rendering:optimizeQuality;" 
viewBox="0 0 700 800" x="0px" y="0px"
 fill-rule="evenodd" clip-rule="evenodd"><defs><style type="text/css">
   
    .fil0 {fill:white;fill-rule:nonzero}
   
  </style></defs><g><path class="fil0" 
  d="M516.38 130.11l-280.84 83.48 0 419.56 280.84 83.49 0 -120.95 65.8 0 -0.01 165.01c-0.01,21.73 -20.96,37.75 -42.12,31.52l-344.5 -102.41c-14.8,-3.24 -25.88,-16.41 -25.88,-32.18l0.07 -468.52c0,-14.21 9.28,-27.31 23.6,-31.51l344.27 -102.35c21.3,-8.12 44.64,7.58 44.64,30.78l-0.02 164.94 -65.85 0 0 -120.86zm-215.45 257.49c-46.99,0 -46.99,71.45 0,71.45l254.07 0 -40.48 40.47c-33.22,33.23 17.29,83.76 50.53,50.53l101.25 -101.26c13.66,-13.65 14.79,-36.14 0,-50.92l-101.25 -101.26c-33.24,-33.23 -83.75,17.28 -50.53,50.52l40.48 40.47 -254.07 0z"/></g>
  </svg>