<?xml version="1.0" encoding="UTF-8" standalone="no"?>
<!-- Created with Inkscape (http://www.inkscape.org/) -->

<svg
   xmlns:dc="http://purl.org/dc/elements/1.1/"
   xmlns:cc="http://creativecommons.org/ns#"
   xmlns:rdf="http://www.w3.org/1999/02/22-rdf-syntax-ns#"
   xmlns:svg="http://www.w3.org/2000/svg"
   xmlns="http://www.w3.org/2000/svg"
   version="1.1"
   width="100%"
   height="100%"
   viewBox="0 0 40 47"
   id="svg2"
   xml:space="preserve"><metadata
     id="metadata14"><rdf:RDF><cc:Work
         rdf:about=""><dc:format>image/svg+xml</dc:format><dc:type
           rdf:resource="http://purl.org/dc/dcmitype/StillImage" /><dc:title></dc:title></cc:Work></rdf:RDF></metadata><defs
     id="defs12" /><path
     d="M 38.7,7.7 H 30.2 C 29.7,3.4 25.3,0 20,0 14.7,0 10.3,3.4 9.8,7.7 H 1.3 C 0.6,7.7 0,8.2 0,8.8 v 7.4 c 0,0.6 0.6,1.1 1.3,1.1 h 1.3 c 0.2,0 0.4,0.2 0.4,0.3 l 1.8,28.3 c 0,0.6 0.6,1.1 1.3,1.1 h 27.7 c 0.7,0 1.3,-0.5 1.3,-1.1 L 37,17.6 c 0,-0.2 0.2,-0.3 0.4,-0.3 h 1.3 c 0.7,0 1.3,-0.5 1.3,-1.1 V 8.8 C 40,8.2 39.4,7.7 38.7,7.7 z M 20,4 c 2.7,0 4.9,1.6 5.3,3.7 H 14.7 C 15.1,5.6 17.3,4 20,4 z m -3.8,38.2 c 0,1.1 -1.1,2 -2.4,2 -1.3,0 -2.4,-0.9 -2.4,-2 V 20.5 c 0,-1.1 1.1,-2 2.4,-2 1.3,0 2.4,0.9 2.4,2 v 21.7 z m 12.4,0 c 0,1.1 -1.1,2 -2.4,2 -1.3,0 -2.4,-0.9 -2.4,-2 V 20.5 c 0,-1.1 1.1,-2 2.4,-2 1.3,0 2.4,0.9 2.4,2 v 21.7 z"
     id="path4"
     style="fill:#000000" /></svg>